<svg width="461" height="165" viewBox="0 0 461 165" fill="none" xmlns="http://www.w3.org/2000/svg">
<path d="M20.45 91L12.75 77.4H9.45002V91H2.45002V56.1H15.55C18.25 56.1 20.55 56.5834 22.45 57.55C24.35 58.4834 25.7667 59.7667 26.7 61.4001C27.6667 63 28.15 64.8 28.15 66.8C28.15 69.1 27.4834 71.1834 26.15 73.05C24.8167 74.8834 22.8334 76.1501 20.2 76.85L28.55 91H20.45ZM9.45002 72.1501H15.3C17.2 72.1501 18.6167 71.7001 19.55 70.8001C20.4834 69.8667 20.95 68.5834 20.95 66.95C20.95 65.35 20.4834 64.1167 19.55 63.2501C18.6167 62.3501 17.2 61.9001 15.3 61.9001H9.45002V72.1501Z" fill="white"/>
<path d="M32.6813 77.0501C32.6813 74.2501 33.2313 71.7667 34.3313 69.6C35.4646 67.4334 36.9813 65.7667 38.8813 64.6001C40.8146 63.4334 42.9646 62.85 45.3313 62.85C47.3979 62.85 49.1979 63.2667 50.7313 64.1C52.2979 64.9334 53.5479 65.9834 54.4813 67.25V63.3H61.5313V91H54.4813V86.9501C53.5813 88.2501 52.3313 89.3334 50.7313 90.2001C49.1646 91.0334 47.3479 91.4501 45.2813 91.4501C42.9479 91.4501 40.8146 90.8501 38.8813 89.6501C36.9813 88.4501 35.4646 86.7667 34.3313 84.6001C33.2313 82.4001 32.6813 79.8834 32.6813 77.0501ZM54.4813 77.1501C54.4813 75.4501 54.1479 74 53.4813 72.8C52.8146 71.5667 51.9146 70.6334 50.7813 70C49.6479 69.3334 48.4313 69 47.1313 69C45.8313 69 44.6313 69.3167 43.5313 69.95C42.4313 70.5834 41.5313 71.5167 40.8313 72.75C40.1646 73.95 39.8313 75.3834 39.8313 77.0501C39.8313 78.7167 40.1646 80.1834 40.8313 81.4501C41.5313 82.6834 42.4313 83.6334 43.5313 84.3C44.6646 84.9667 45.8646 85.3 47.1313 85.3C48.4313 85.3 49.6479 84.9834 50.7813 84.3501C51.9146 83.6834 52.8146 82.7501 53.4813 81.5501C54.1479 80.3167 54.4813 78.8501 54.4813 77.1501Z" fill="white"/>
<path d="M78.968 91.4501C76.7013 91.4501 74.668 91.05 72.868 90.25C71.068 89.4167 69.6347 88.3001 68.568 86.9001C67.5347 85.5001 66.968 83.95 66.868 82.25H73.918C74.0513 83.3167 74.568 84.2001 75.468 84.9001C76.4013 85.6001 77.5513 85.9501 78.918 85.9501C80.2513 85.9501 81.2847 85.6834 82.018 85.1501C82.7847 84.6167 83.168 83.9334 83.168 83.1C83.168 82.2001 82.7013 81.5334 81.768 81.1C80.868 80.6334 79.418 80.1334 77.418 79.6C75.3513 79.1 73.6513 78.5834 72.318 78.0501C71.018 77.5167 69.8847 76.7001 68.918 75.6C67.9847 74.5001 67.518 73.0167 67.518 71.15C67.518 69.6167 67.9513 68.2167 68.818 66.95C69.718 65.6834 70.9847 64.6834 72.618 63.9501C74.2847 63.2167 76.2347 62.85 78.468 62.85C81.768 62.85 84.4013 63.6834 86.368 65.35C88.3347 66.9834 89.418 69.2 89.618 72H82.918C82.818 70.9 82.3513 70.0334 81.518 69.4001C80.718 68.7334 79.6347 68.4 78.268 68.4C77.0013 68.4 76.018 68.6334 75.318 69.1C74.6513 69.5667 74.318 70.2167 74.318 71.0501C74.318 71.9834 74.7847 72.7 75.718 73.2001C76.6513 73.6667 78.1013 74.15 80.068 74.65C82.068 75.15 83.718 75.6667 85.018 76.2001C86.318 76.7334 87.4347 77.5667 88.368 78.7001C89.3347 79.8001 89.8347 81.2667 89.868 83.1C89.868 84.7 89.418 86.1334 88.518 87.4001C87.6513 88.6667 86.3847 89.6667 84.718 90.4001C83.0847 91.1001 81.168 91.4501 78.968 91.4501Z" fill="white"/>
<path d="M103.764 69.0501V82.4501C103.764 83.3834 103.981 84.0667 104.414 84.5C104.881 84.9 105.647 85.1001 106.714 85.1001H109.964V91H105.564C99.6641 91 96.7141 88.1334 96.7141 82.4001V69.0501H93.4141V63.3H96.7141V56.45H103.764V63.3H109.964V69.0501H103.764Z" fill="white"/>
<path d="M121.999 67.6C122.899 66.1334 124.066 64.9834 125.499 64.1501C126.966 63.3167 128.632 62.9 130.499 62.9V70.25H128.649C126.449 70.25 124.782 70.7667 123.649 71.8001C122.549 72.8334 121.999 74.6334 121.999 77.2001V91H114.999V63.3H121.999V67.6Z" fill="white"/>
<path d="M160.964 76.5501C160.964 77.5501 160.897 78.45 160.764 79.25H140.514C140.68 81.25 141.38 82.8167 142.614 83.9501C143.847 85.0834 145.364 85.6501 147.164 85.6501C149.764 85.6501 151.614 84.5334 152.714 82.3001H160.264C159.464 84.9667 157.93 87.1667 155.664 88.9001C153.397 90.6001 150.614 91.4501 147.314 91.4501C144.647 91.4501 142.247 90.8667 140.114 89.7001C138.014 88.5001 136.364 86.8167 135.164 84.6501C133.997 82.4834 133.414 79.9834 133.414 77.1501C133.414 74.2834 133.997 71.7667 135.164 69.6C136.33 67.4334 137.964 65.7667 140.064 64.6001C142.164 63.4334 144.58 62.85 147.314 62.85C149.947 62.85 152.297 63.4167 154.364 64.55C156.464 65.6834 158.08 67.3001 159.214 69.4001C160.38 71.4667 160.964 73.8501 160.964 76.5501ZM153.714 74.55C153.68 72.75 153.03 71.3167 151.764 70.25C150.497 69.15 148.947 68.6 147.114 68.6C145.38 68.6 143.914 69.1334 142.714 70.2001C141.547 71.2334 140.83 72.6834 140.564 74.55H153.714Z" fill="white"/>
<path d="M169.623 60.0001C168.39 60.0001 167.356 59.6167 166.523 58.8501C165.723 58.05 165.323 57.0667 165.323 55.9C165.323 54.7334 165.723 53.7667 166.523 53C167.356 52.2 168.39 51.8 169.623 51.8C170.856 51.8 171.873 52.2 172.673 53C173.506 53.7667 173.923 54.7334 173.923 55.9C173.923 57.0667 173.506 58.05 172.673 58.8501C171.873 59.6167 170.856 60.0001 169.623 60.0001ZM173.073 63.3V91H166.073V63.3H173.073Z" fill="white"/>
<path d="M205.739 76.5501C205.739 77.5501 205.672 78.45 205.539 79.25H185.289C185.456 81.25 186.156 82.8167 187.389 83.9501C188.622 85.0834 190.139 85.6501 191.939 85.6501C194.539 85.6501 196.389 84.5334 197.489 82.3001H205.039C204.239 84.9667 202.706 87.1667 200.439 88.9001C198.172 90.6001 195.389 91.4501 192.089 91.4501C189.422 91.4501 187.022 90.8667 184.889 89.7001C182.789 88.5001 181.139 86.8167 179.939 84.6501C178.772 82.4834 178.189 79.9834 178.189 77.1501C178.189 74.2834 178.772 71.7667 179.939 69.6C181.106 67.4334 182.739 65.7667 184.839 64.6001C186.939 63.4334 189.356 62.85 192.089 62.85C194.722 62.85 197.072 63.4167 199.139 64.55C201.239 65.6834 202.856 67.3001 203.989 69.4001C205.156 71.4667 205.739 73.8501 205.739 76.5501ZM198.489 74.55C198.456 72.75 197.806 71.3167 196.539 70.25C195.272 69.15 193.722 68.6 191.889 68.6C190.156 68.6 188.689 69.1334 187.489 70.2001C186.322 71.2334 185.606 72.6834 185.339 74.55H198.489Z" fill="white"/>
<path d="M233.363 91.4501C231.096 91.4501 229.063 91.05 227.263 90.25C225.463 89.4167 224.029 88.3001 222.963 86.9001C221.929 85.5001 221.363 83.95 221.263 82.25H228.313C228.446 83.3167 228.963 84.2001 229.863 84.9001C230.796 85.6001 231.946 85.9501 233.313 85.9501C234.646 85.9501 235.679 85.6834 236.413 85.1501C237.179 84.6167 237.563 83.9334 237.563 83.1C237.563 82.2001 237.096 81.5334 236.163 81.1C235.263 80.6334 233.813 80.1334 231.813 79.6C229.746 79.1 228.046 78.5834 226.713 78.0501C225.413 77.5167 224.279 76.7001 223.313 75.6C222.379 74.5001 221.913 73.0167 221.913 71.15C221.913 69.6167 222.346 68.2167 223.213 66.95C224.113 65.6834 225.379 64.6834 227.013 63.9501C228.679 63.2167 230.629 62.85 232.863 62.85C236.163 62.85 238.796 63.6834 240.763 65.35C242.729 66.9834 243.813 69.2 244.013 72H237.313C237.213 70.9 236.746 70.0334 235.913 69.4001C235.113 68.7334 234.029 68.4 232.663 68.4C231.396 68.4 230.413 68.6334 229.713 69.1C229.046 69.5667 228.713 70.2167 228.713 71.0501C228.713 71.9834 229.179 72.7 230.113 73.2001C231.046 73.6667 232.496 74.15 234.463 74.65C236.463 75.15 238.113 75.6667 239.413 76.2001C240.713 76.7334 241.829 77.5667 242.763 78.7001C243.729 79.8001 244.229 81.2667 244.263 83.1C244.263 84.7 243.813 86.1334 242.913 87.4001C242.046 88.6667 240.779 89.6667 239.113 90.4001C237.479 91.1001 235.563 91.4501 233.363 91.4501Z" fill="white"/>
<path d="M276.159 63.3V91H269.109V87.5C268.209 88.7 267.025 89.6501 265.559 90.3501C264.125 91.0167 262.559 91.3501 260.859 91.3501C258.692 91.3501 256.775 90.9 255.109 90C253.442 89.0667 252.125 87.7167 251.159 85.9501C250.225 84.1501 249.759 82.0167 249.759 79.5501V63.3H256.759V78.5501C256.759 80.7501 257.309 82.4501 258.409 83.6501C259.509 84.8167 261.009 85.4001 262.909 85.4001C264.842 85.4001 266.359 84.8167 267.459 83.6501C268.559 82.4501 269.109 80.7501 269.109 78.5501V63.3H276.159Z" fill="white"/>
<path d="M281.265 77.0501C281.265 74.2501 281.815 71.7667 282.915 69.6C284.049 67.4334 285.565 65.7667 287.465 64.6001C289.399 63.4334 291.549 62.85 293.915 62.85C295.982 62.85 297.782 63.2667 299.315 64.1C300.882 64.9334 302.132 65.9834 303.065 67.25V63.3H310.115V91H303.065V86.9501C302.165 88.2501 300.915 89.3334 299.315 90.2001C297.749 91.0334 295.932 91.4501 293.865 91.4501C291.532 91.4501 289.399 90.8501 287.465 89.6501C285.565 88.4501 284.049 86.7667 282.915 84.6001C281.815 82.4001 281.265 79.8834 281.265 77.0501ZM303.065 77.1501C303.065 75.4501 302.732 74 302.065 72.8C301.399 71.5667 300.499 70.6334 299.365 70C298.232 69.3334 297.015 69 295.715 69C294.415 69 293.215 69.3167 292.115 69.95C291.015 70.5834 290.115 71.5167 289.415 72.75C288.749 73.95 288.415 75.3834 288.415 77.0501C288.415 78.7167 288.749 80.1834 289.415 81.4501C290.115 82.6834 291.015 83.6334 292.115 84.3C293.249 84.9667 294.449 85.3 295.715 85.3C297.015 85.3 298.232 84.9834 299.365 84.3501C300.499 83.6834 301.399 82.7501 302.065 81.5501C302.732 80.3167 303.065 78.8501 303.065 77.1501Z" fill="white"/>
<path d="M327.552 91.4501C325.285 91.4501 323.252 91.05 321.452 90.25C319.652 89.4167 318.219 88.3001 317.152 86.9001C316.119 85.5001 315.552 83.95 315.452 82.25H322.502C322.635 83.3167 323.152 84.2001 324.052 84.9001C324.985 85.6001 326.135 85.9501 327.502 85.9501C328.835 85.9501 329.869 85.6834 330.602 85.1501C331.369 84.6167 331.752 83.9334 331.752 83.1C331.752 82.2001 331.285 81.5334 330.352 81.1C329.452 80.6334 328.002 80.1334 326.002 79.6C323.935 79.1 322.235 78.5834 320.902 78.0501C319.602 77.5167 318.469 76.7001 317.502 75.6C316.569 74.5001 316.102 73.0167 316.102 71.15C316.102 69.6167 316.535 68.2167 317.402 66.95C318.302 65.6834 319.569 64.6834 321.202 63.9501C322.869 63.2167 324.819 62.85 327.052 62.85C330.352 62.85 332.985 63.6834 334.952 65.35C336.919 66.9834 338.002 69.2 338.202 72H331.502C331.402 70.9 330.935 70.0334 330.102 69.4001C329.302 68.7334 328.219 68.4 326.852 68.4C325.585 68.4 324.602 68.6334 323.902 69.1C323.235 69.5667 322.902 70.2167 322.902 71.0501C322.902 71.9834 323.369 72.7 324.302 73.2001C325.235 73.6667 326.685 74.15 328.652 74.65C330.652 75.15 332.302 75.6667 333.602 76.2001C334.902 76.7334 336.019 77.5667 336.952 78.7001C337.919 79.8001 338.419 81.2667 338.452 83.1C338.452 84.7 338.002 86.1334 337.102 87.4001C336.235 88.6667 334.969 89.6667 333.302 90.4001C331.669 91.1001 329.752 91.4501 327.552 91.4501Z" fill="white"/>
<path d="M28.2 136.55C28.2 137.55 28.1334 138.45 28 139.25H7.75002C7.91669 141.25 8.61669 142.817 9.85003 143.95C11.0834 145.083 12.6 145.65 14.4 145.65C17 145.65 18.85 144.533 19.95 142.3H27.5C26.7 144.967 25.1667 147.167 22.9 148.9C20.6334 150.6 17.85 151.45 14.55 151.45C11.8834 151.45 9.48336 150.867 7.35003 149.7C5.25002 148.5 3.60002 146.817 2.40002 144.65C1.23336 142.483 0.650024 139.983 0.650024 137.15C0.650024 134.283 1.23336 131.767 2.40002 129.6C3.56669 127.433 5.20002 125.767 7.30002 124.6C9.40003 123.433 11.8167 122.85 14.55 122.85C17.1834 122.85 19.5334 123.417 21.6 124.55C23.7 125.683 25.3167 127.3 26.45 129.4C27.6167 131.467 28.2 133.85 28.2 136.55ZM20.95 134.55C20.9167 132.75 20.2667 131.317 19 130.25C17.7334 129.15 16.1834 128.6 14.35 128.6C12.6167 128.6 11.15 129.133 9.95002 130.2C8.78336 131.233 8.06669 132.683 7.80002 134.55H20.95Z" fill="#3C3F52"/>
<path d="M48.6594 122.9C51.9594 122.9 54.6261 123.95 56.6594 126.05C58.6927 128.117 59.7094 131.017 59.7094 134.75V151H52.7094V135.7C52.7094 133.5 52.1594 131.817 51.0594 130.65C49.9594 129.45 48.4594 128.85 46.5594 128.85C44.6261 128.85 43.0927 129.45 41.9594 130.65C40.8594 131.817 40.3094 133.5 40.3094 135.7V151H33.3094V123.3H40.3094V126.75C41.2427 125.55 42.4261 124.617 43.8594 123.95C45.3261 123.25 46.9261 122.9 48.6594 122.9Z" fill="#3C3F52"/>
<path d="M64.566 137.15C64.566 134.283 65.1494 131.783 66.316 129.65C67.4827 127.483 69.0994 125.817 71.166 124.65C73.2327 123.45 75.5994 122.85 78.266 122.85C81.6994 122.85 84.5327 123.717 86.766 125.45C89.0327 127.15 90.5494 129.55 91.316 132.65H83.766C83.366 131.45 82.6827 130.517 81.716 129.85C80.7827 129.15 79.616 128.8 78.216 128.8C76.216 128.8 74.6327 129.533 73.466 131C72.2994 132.433 71.716 134.483 71.716 137.15C71.716 139.783 72.2994 141.833 73.466 143.3C74.6327 144.733 76.216 145.45 78.216 145.45C81.0494 145.45 82.8994 144.183 83.766 141.65H91.316C90.5494 144.65 89.0327 147.033 86.766 148.8C84.4994 150.567 81.666 151.45 78.266 151.45C75.5994 151.45 73.2327 150.867 71.166 149.7C69.0994 148.5 67.4827 146.833 66.316 144.7C65.1494 142.533 64.566 140.017 64.566 137.15Z" fill="#3C3F52"/>
<path d="M108.744 151.45C106.077 151.45 103.678 150.867 101.544 149.7C99.4108 148.5 97.7275 146.817 96.4942 144.65C95.2942 142.483 94.6942 139.983 94.6942 137.15C94.6942 134.317 95.3108 131.817 96.5442 129.65C97.8108 127.483 99.5275 125.817 101.694 124.65C103.861 123.45 106.278 122.85 108.944 122.85C111.611 122.85 114.028 123.45 116.194 124.65C118.361 125.817 120.061 127.483 121.294 129.65C122.561 131.817 123.194 134.317 123.194 137.15C123.194 139.983 122.544 142.483 121.244 144.65C119.977 146.817 118.244 148.5 116.044 149.7C113.878 150.867 111.444 151.45 108.744 151.45ZM108.744 145.35C110.011 145.35 111.194 145.05 112.294 144.45C113.428 143.817 114.327 142.883 114.994 141.65C115.661 140.417 115.994 138.917 115.994 137.15C115.994 134.517 115.294 132.5 113.894 131.1C112.527 129.667 110.844 128.95 108.844 128.95C106.844 128.95 105.161 129.667 103.794 131.1C102.461 132.5 101.794 134.517 101.794 137.15C101.794 139.783 102.444 141.817 103.744 143.25C105.077 144.65 106.744 145.35 108.744 145.35Z" fill="#3C3F52"/>
<path d="M162.729 122.9C166.129 122.9 168.862 123.95 170.929 126.05C173.029 128.117 174.079 131.017 174.079 134.75V151H167.079V135.7C167.079 133.533 166.529 131.883 165.429 130.75C164.329 129.583 162.829 129 160.929 129C159.029 129 157.512 129.583 156.379 130.75C155.279 131.883 154.729 133.533 154.729 135.7V151H147.729V135.7C147.729 133.533 147.179 131.883 146.079 130.75C144.979 129.583 143.479 129 141.579 129C139.646 129 138.112 129.583 136.979 130.75C135.879 131.883 135.329 133.533 135.329 135.7V151H128.329V123.3H135.329V126.65C136.229 125.483 137.379 124.567 138.779 123.9C140.212 123.233 141.779 122.9 143.479 122.9C145.646 122.9 147.579 123.367 149.279 124.3C150.979 125.2 152.296 126.5 153.229 128.2C154.129 126.6 155.429 125.317 157.129 124.35C158.862 123.383 160.729 122.9 162.729 122.9Z" fill="#3C3F52"/>
<path d="M206.472 136.55C206.472 137.55 206.405 138.45 206.272 139.25H186.022C186.188 141.25 186.888 142.817 188.122 143.95C189.355 145.083 190.872 145.65 192.672 145.65C195.272 145.65 197.122 144.533 198.222 142.3H205.772C204.972 144.967 203.438 147.167 201.172 148.9C198.905 150.6 196.122 151.45 192.822 151.45C190.155 151.45 187.755 150.867 185.622 149.7C183.522 148.5 181.872 146.817 180.672 144.65C179.505 142.483 178.922 139.983 178.922 137.15C178.922 134.283 179.505 131.767 180.672 129.6C181.838 127.433 183.472 125.767 185.572 124.6C187.672 123.433 190.088 122.85 192.822 122.85C195.455 122.85 197.805 123.417 199.872 124.55C201.972 125.683 203.588 127.3 204.722 129.4C205.888 131.467 206.472 133.85 206.472 136.55ZM199.222 134.55C199.188 132.75 198.538 131.317 197.272 130.25C196.005 129.15 194.455 128.6 192.622 128.6C190.888 128.6 189.422 129.133 188.222 130.2C187.055 131.233 186.338 132.683 186.072 134.55H199.222Z" fill="#3C3F52"/>
<path d="M226.931 122.9C230.231 122.9 232.898 123.95 234.931 126.05C236.964 128.117 237.981 131.017 237.981 134.75V151H230.981V135.7C230.981 133.5 230.431 131.817 229.331 130.65C228.231 129.45 226.731 128.85 224.831 128.85C222.898 128.85 221.364 129.45 220.231 130.65C219.131 131.817 218.581 133.5 218.581 135.7V151H211.581V123.3H218.581V126.75C219.514 125.55 220.698 124.617 222.131 123.95C223.598 123.25 225.198 122.9 226.931 122.9Z" fill="#3C3F52"/>
<path d="M242.838 137.05C242.838 134.25 243.388 131.767 244.488 129.6C245.621 127.433 247.154 125.767 249.088 124.6C251.021 123.433 253.171 122.85 255.538 122.85C257.338 122.85 259.054 123.25 260.688 124.05C262.321 124.817 263.621 125.85 264.588 127.15V114H271.688V151H264.588V146.9C263.721 148.267 262.504 149.367 260.938 150.2C259.371 151.033 257.554 151.45 255.488 151.45C253.154 151.45 251.021 150.85 249.088 149.65C247.154 148.45 245.621 146.767 244.488 144.6C243.388 142.4 242.838 139.883 242.838 137.05ZM264.638 137.15C264.638 135.45 264.304 134 263.638 132.8C262.971 131.567 262.071 130.633 260.938 130C259.804 129.333 258.588 129 257.288 129C255.988 129 254.788 129.317 253.688 129.95C252.588 130.583 251.688 131.517 250.988 132.75C250.321 133.95 249.988 135.383 249.988 137.05C249.988 138.717 250.321 140.183 250.988 141.45C251.688 142.683 252.588 143.633 253.688 144.3C254.821 144.967 256.021 145.3 257.288 145.3C258.588 145.3 259.804 144.983 260.938 144.35C262.071 143.683 262.971 142.75 263.638 141.55C264.304 140.317 264.638 138.85 264.638 137.15Z" fill="#3C3F52"/>
<path d="M276.724 137.05C276.724 134.25 277.274 131.767 278.374 129.6C279.508 127.433 281.024 125.767 282.924 124.6C284.858 123.433 287.008 122.85 289.374 122.85C291.441 122.85 293.241 123.267 294.774 124.1C296.341 124.933 297.591 125.983 298.524 127.25V123.3H305.574V151H298.524V146.95C297.624 148.25 296.374 149.333 294.774 150.2C293.208 151.033 291.391 151.45 289.324 151.45C286.991 151.45 284.858 150.85 282.924 149.65C281.024 148.45 279.508 146.767 278.374 144.6C277.274 142.4 276.724 139.883 276.724 137.05ZM298.524 137.15C298.524 135.45 298.191 134 297.524 132.8C296.858 131.567 295.958 130.633 294.824 130C293.691 129.333 292.474 129 291.174 129C289.874 129 288.674 129.317 287.574 129.95C286.474 130.583 285.574 131.517 284.874 132.75C284.208 133.95 283.874 135.383 283.874 137.05C283.874 138.717 284.208 140.183 284.874 141.45C285.574 142.683 286.474 143.633 287.574 144.3C288.708 144.967 289.908 145.3 291.174 145.3C292.474 145.3 293.691 144.983 294.824 144.35C295.958 143.683 296.858 142.75 297.524 141.55C298.191 140.317 298.524 138.85 298.524 137.15Z" fill="#3C3F52"/>
<path d="M323.011 151.45C320.744 151.45 318.711 151.05 316.911 150.25C315.111 149.417 313.678 148.3 312.611 146.9C311.578 145.5 311.011 143.95 310.911 142.25H317.961C318.094 143.317 318.611 144.2 319.511 144.9C320.444 145.6 321.594 145.95 322.961 145.95C324.294 145.95 325.328 145.683 326.061 145.15C326.828 144.617 327.211 143.933 327.211 143.1C327.211 142.2 326.744 141.533 325.811 141.1C324.911 140.633 323.461 140.133 321.461 139.6C319.394 139.1 317.694 138.583 316.361 138.05C315.061 137.517 313.928 136.7 312.961 135.6C312.028 134.5 311.561 133.017 311.561 131.15C311.561 129.617 311.994 128.217 312.861 126.95C313.761 125.683 315.028 124.683 316.661 123.95C318.328 123.217 320.278 122.85 322.511 122.85C325.811 122.85 328.444 123.683 330.411 125.35C332.378 126.983 333.461 129.2 333.661 132H326.961C326.861 130.9 326.394 130.033 325.561 129.4C324.761 128.733 323.678 128.4 322.311 128.4C321.044 128.4 320.061 128.633 319.361 129.1C318.694 129.567 318.361 130.217 318.361 131.05C318.361 131.983 318.828 132.7 319.761 133.2C320.694 133.667 322.144 134.15 324.111 134.65C326.111 135.15 327.761 135.667 329.061 136.2C330.361 136.733 331.478 137.567 332.411 138.7C333.378 139.8 333.878 141.267 333.911 143.1C333.911 144.7 333.461 146.133 332.561 147.4C331.694 148.667 330.428 149.667 328.761 150.4C327.128 151.1 325.211 151.45 323.011 151.45Z" fill="#3C3F52"/>
<path d="M349.771 137.05C349.771 134.25 350.321 131.767 351.421 129.6C352.554 127.433 354.071 125.767 355.971 124.6C357.904 123.433 360.054 122.85 362.421 122.85C364.488 122.85 366.288 123.267 367.821 124.1C369.388 124.933 370.638 125.983 371.571 127.25V123.3H378.621V151H371.571V146.95C370.671 148.25 369.421 149.333 367.821 150.2C366.254 151.033 364.438 151.45 362.371 151.45C360.038 151.45 357.904 150.85 355.971 149.65C354.071 148.45 352.554 146.767 351.421 144.6C350.321 142.4 349.771 139.883 349.771 137.05ZM371.571 137.15C371.571 135.45 371.238 134 370.571 132.8C369.904 131.567 369.004 130.633 367.871 130C366.738 129.333 365.521 129 364.221 129C362.921 129 361.721 129.317 360.621 129.95C359.521 130.583 358.621 131.517 357.921 132.75C357.254 133.95 356.921 135.383 356.921 137.05C356.921 138.717 357.254 140.183 357.921 141.45C358.621 142.683 359.521 143.633 360.621 144.3C361.754 144.967 362.954 145.3 364.221 145.3C365.521 145.3 366.738 144.983 367.871 144.35C369.004 143.683 369.904 142.75 370.571 141.55C371.238 140.317 371.571 138.85 371.571 137.15Z" fill="#3C3F52"/>
<path d="M383.658 137.1C383.658 134.333 384.225 131.883 385.358 129.75C386.525 127.583 388.091 125.9 390.058 124.7C392.024 123.5 394.191 122.9 396.558 122.9C398.524 122.9 400.258 123.283 401.758 124.05C403.291 124.783 404.524 125.733 405.458 126.9V123.3H412.508V164.2H405.458V147.2C404.524 148.4 403.274 149.4 401.708 150.2C400.141 151 398.375 151.4 396.408 151.4C394.075 151.4 391.924 150.8 389.958 149.6C388.024 148.367 386.491 146.667 385.358 144.5C384.225 142.333 383.658 139.867 383.658 137.1ZM405.458 137.15C405.458 135.45 405.108 133.983 404.408 132.75C403.708 131.517 402.791 130.583 401.658 129.95C400.558 129.317 399.375 129 398.108 129C396.875 129 395.691 129.317 394.558 129.95C393.458 130.583 392.558 131.517 391.858 132.75C391.158 133.95 390.808 135.4 390.808 137.1C390.808 138.8 391.158 140.283 391.858 141.55C392.558 142.783 393.458 143.717 394.558 144.35C395.691 144.983 396.875 145.3 398.108 145.3C399.375 145.3 400.558 144.983 401.658 144.35C402.791 143.717 403.708 142.783 404.408 141.55C405.108 140.317 405.458 138.85 405.458 137.15Z" fill="#3C3F52"/>
<path d="M445.495 123.3V151H438.445V147.5C437.545 148.7 436.361 149.65 434.895 150.35C433.461 151.017 431.895 151.35 430.195 151.35C428.028 151.35 426.111 150.9 424.445 150C422.778 149.067 421.461 147.717 420.495 145.95C419.561 144.15 419.095 142.017 419.095 139.55V123.3H426.095V138.55C426.095 140.75 426.645 142.45 427.745 143.65C428.845 144.817 430.345 145.4 432.245 145.4C434.178 145.4 435.695 144.817 436.795 143.65C437.895 142.45 438.445 140.75 438.445 138.55V123.3H445.495Z" fill="#3C3F52"/>
<path d="M455.951 120C454.718 120 453.685 119.617 452.851 118.85C452.051 118.05 451.651 117.067 451.651 115.9C451.651 114.733 452.051 113.767 452.851 113C453.685 112.2 454.718 111.8 455.951 111.8C457.185 111.8 458.201 112.2 459.001 113C459.835 113.767 460.251 114.733 460.251 115.9C460.251 117.067 459.835 118.05 459.001 118.85C458.201 119.617 457.185 120 455.951 120ZM459.401 123.3V151H452.401V123.3H459.401Z" fill="#3C3F52"/>
<path d="M426.515 12.8325C412.341 6.25557 395.516 12.4181 388.937 26.5958C382.994 39.4023 392.665 80.5688 392.665 80.5688L394.655 81.492C394.655 81.492 433.688 64.5923 440.267 50.4146C446.846 36.2369 440.688 19.4095 426.515 12.8325ZM408.784 51.043C401.862 47.8312 398.855 39.6126 402.068 32.689C405.281 25.7653 413.498 22.7555 420.42 25.9674C427.341 29.1792 430.349 37.3978 427.136 44.3214C423.923 51.2451 415.706 54.2549 408.784 51.043Z" fill="#263238" stroke="#3C3F52" stroke-linecap="round" stroke-linejoin="round"/>
<path d="M424.525 11.9094C410.352 5.33247 393.526 11.495 386.947 25.6727C380.368 39.8504 392.665 80.5689 392.665 80.5689C392.665 80.5689 431.699 63.6692 438.277 49.4915C444.856 35.3139 438.699 18.4864 424.525 11.9094ZM406.794 50.1199C399.873 46.9081 396.865 38.6895 400.078 31.7659C403.291 24.8422 411.509 21.8324 418.43 25.0443C425.352 28.2561 428.359 36.4747 425.147 43.3983C421.934 50.322 413.716 53.3318 406.794 50.1199Z" fill="#14D7BF" stroke="#3C3F52" stroke-linecap="round" stroke-linejoin="round"/>
<path d="M392.779 94.5103C402.045 94.5103 409.558 93.7245 409.558 92.7552C409.558 91.7858 402.045 91 392.779 91C383.512 91 376 91.7858 376 92.7552C376 93.7245 383.512 94.5103 392.779 94.5103Z" fill="#14D7BF"/>
<path opacity="0.5" d="M392.779 94.5103C402.045 94.5103 409.558 93.7245 409.558 92.7552C409.558 91.7858 402.045 91 392.779 91C383.512 91 376 91.7858 376 92.7552C376 93.7245 383.512 94.5103 392.779 94.5103Z" fill="white"/>
</svg>
